<svg width="116" height="116" viewBox="0 0 116 116" fill="none" xmlns="http://www.w3.org/2000/svg">
<path d="M116 58C116 90.0325 90.0325 116 58 116C25.9675 116 0 90.0325 0 58C0 25.9675 25.9675 0 58 0C90.0325 0 116 25.9675 116 58Z" fill="#313131"/>
<path d="M52.5455 66.9176V66.1932C52.5597 63.7074 52.7798 61.7259 53.206 60.2486C53.6463 58.7713 54.2855 57.5781 55.1236 56.669C55.9616 55.7599 56.9702 54.9361 58.1491 54.1974C59.0298 53.6293 59.8182 53.0398 60.5142 52.429C61.2102 51.8182 61.7642 51.1435 62.1761 50.4048C62.5881 49.652 62.794 48.8139 62.794 47.8906C62.794 46.9105 62.5597 46.0511 62.0909 45.3125C61.6222 44.5739 60.9901 44.0057 60.1946 43.608C59.4134 43.2102 58.5469 43.0114 57.5952 43.0114C56.6719 43.0114 55.7983 43.2173 54.9744 43.6293C54.1506 44.027 53.4759 44.6236 52.9503 45.419C52.4247 46.2003 52.1406 47.1733 52.098 48.3381H43.4048C43.4759 45.4972 44.1577 43.1534 45.4503 41.3068C46.7429 39.446 48.4545 38.0611 50.5852 37.152C52.7159 36.2287 55.0668 35.767 57.6378 35.767C60.4645 35.767 62.9645 36.2358 65.1378 37.1733C67.3111 38.0966 69.0156 39.4389 70.2514 41.2003C71.4872 42.9616 72.1051 45.0852 72.1051 47.571C72.1051 49.233 71.8281 50.7102 71.2741 52.0028C70.7344 53.2812 69.9744 54.4176 68.9943 55.4119C68.0142 56.392 66.8565 57.2798 65.5213 58.0753C64.3992 58.7429 63.4759 59.4389 62.7514 60.1634C62.0412 60.8878 61.5085 61.7259 61.1534 62.6776C60.8125 63.6293 60.6349 64.8011 60.6207 66.1932V66.9176H52.5455ZM56.7642 80.554C55.3438 80.554 54.1293 80.0568 53.1207 79.0625C52.1264 78.054 51.6364 76.8466 51.6506 75.4403C51.6364 74.0483 52.1264 72.8551 53.1207 71.8608C54.1293 70.8665 55.3438 70.3693 56.7642 70.3693C58.1136 70.3693 59.2997 70.8665 60.3224 71.8608C61.3452 72.8551 61.8636 74.0483 61.8778 75.4403C61.8636 76.3778 61.6151 77.2372 61.1321 78.0185C60.6634 78.7855 60.0455 79.4034 59.2784 79.8722C58.5114 80.3267 57.6733 80.554 56.7642 80.554Z" fill="url(#paint0_linear_426_6)"/>
<defs>
<linearGradient id="paint0_linear_426_6" x1="58" y1="36" x2="58" y2="80" gradientUnits="userSpaceOnUse">
<stop stop-color="#FF0000"/>
<stop offset="1" stop-color="#0CF66A"/>
</linearGradient>
</defs>
</svg>
